<svg width="172" height="20" viewBox="0 0 172 20" fill="none" xmlns="http://www.w3.org/2000/svg">
<path d="M128.167 1.66652C129.271 1.66982 130.329 2.10989 131.109 2.89064C131.89 3.67138 132.33 4.72935 132.333 5.83348V14.1665C132.33 15.2707 131.89 16.3286 131.109 17.1094C130.329 17.8901 129.271 18.3302 128.167 18.3335H119.833C118.729 18.3302 117.671 17.8901 116.891 17.1094C116.11 16.3286 115.67 15.2707 115.667 14.1665V5.83348C115.67 4.72935 116.11 3.67138 116.891 2.89064C117.671 2.10989 118.729 1.66982 119.833 1.66652H128.167ZM128.167 0H119.833C116.625 0 114 2.625 114 5.83348V14.1665C114 17.375 116.625 20 119.833 20H128.167C131.375 20 134 17.375 134 14.1665V5.83348C134 2.625 131.375 0 128.167 0Z" fill="#323232"/>
<path d="M129.417 5.83362C129.169 5.83362 128.928 5.76031 128.722 5.62296C128.516 5.4856 128.356 5.29038 128.262 5.06197C128.167 4.83356 128.142 4.58223 128.191 4.33976C128.239 4.09728 128.358 3.87455 128.533 3.69974C128.707 3.52492 128.93 3.40587 129.173 3.35764C129.415 3.30941 129.666 3.33416 129.895 3.42877C130.123 3.52338 130.319 3.68359 130.456 3.88916C130.593 4.09472 130.667 4.33639 130.667 4.58362C130.667 4.74787 130.635 4.91057 130.572 5.06239C130.509 5.21421 130.417 5.35215 130.301 5.46829C130.185 5.58443 130.047 5.67649 129.895 5.73919C129.743 5.80188 129.581 5.83397 129.417 5.83362ZM124 6.66665C124.659 6.66665 125.304 6.86216 125.852 7.22845C126.4 7.59474 126.827 8.11535 127.08 8.72447C127.332 9.33358 127.398 10.0038 127.269 10.6505C127.141 11.2971 126.823 11.8911 126.357 12.3573C125.891 12.8235 125.297 13.1409 124.65 13.2696C124.004 13.3982 123.333 13.3322 122.724 13.0799C122.115 12.8276 121.595 12.4003 121.228 11.8521C120.862 11.3039 120.667 10.6594 120.667 10.0001C120.667 9.11633 121.019 8.269 121.644 7.64405C122.269 7.01911 123.116 6.6676 124 6.66665ZM124 5.00014C123.011 5.00014 122.044 5.29338 121.222 5.84279C120.4 6.39219 119.759 7.17309 119.381 8.08672C119.002 9.00035 118.903 10.0057 119.096 10.9756C119.289 11.9455 119.765 12.8364 120.464 13.5357C121.164 14.2349 122.055 14.7111 123.025 14.9041C123.994 15.097 125 14.998 125.913 14.6195C126.827 14.2411 127.608 13.6002 128.157 12.778C128.707 11.9557 129 10.989 129 10.0001C129 8.67405 128.473 7.40228 127.536 6.4646C126.598 5.52692 125.326 5.00014 124 5.00014Z" fill="#323232"/>
<path d="M170.4 0H153.709C152.797 0 152 0.656249 152 1.55759V18.2861C152 19.1924 152.797 20 153.709 20H170.396C171.312 20 172 19.187 172 18.2861V1.55759C172.005 0.656249 171.312 0 170.4 0ZM158.2 16.671H155.334V7.76249H158.2V16.671ZM156.866 6.40803H156.846C155.929 6.40803 155.335 5.72544 155.335 4.87097C155.335 4.00089 155.944 3.33437 156.882 3.33437C157.819 3.33437 158.393 3.99598 158.413 4.87097C158.413 5.72544 157.819 6.40803 156.866 6.40803ZM168.671 16.671H165.806V11.8C165.806 10.633 165.389 9.8357 164.352 9.8357C163.56 9.8357 163.092 10.3714 162.883 10.8933C162.805 11.0808 162.784 11.3361 162.784 11.5969V16.671H159.919V7.76249H162.784V9.00222C163.201 8.40847 163.852 7.55401 165.368 7.55401C167.249 7.55401 168.671 8.79374 168.671 11.4665L168.671 16.671Z" fill="#323232"/>
<path d="M96 3.89584C95.2498 4.22182 94.456 4.43658 93.6438 4.53334C94.4974 4.0335 95.1393 3.23941 95.4492 2.30001C94.6421 2.77192 93.7606 3.10304 92.8425 3.27917C92.4559 2.87398 91.9909 2.55163 91.4758 2.33173C90.9607 2.11183 90.4063 1.99897 89.8463 2.00001C87.5788 2.00001 85.7438 3.80834 85.7438 6.03751C85.7421 6.34758 85.7777 6.65672 85.8496 6.95834C84.2236 6.88212 82.6315 6.46733 81.175 5.74053C79.7185 5.01373 78.4298 3.99091 77.3913 2.73751C77.0269 3.35172 76.8342 4.05253 76.8333 4.76667C76.8333 6.16667 77.5638 7.40417 78.6667 8.12917C78.0132 8.11367 77.3732 7.94072 76.8008 7.62501V7.67501C76.8008 9.63334 78.2175 11.2625 80.0925 11.6333C79.7399 11.7273 79.3766 11.775 79.0117 11.775C78.7527 11.7755 78.4944 11.7503 78.2404 11.7C78.7617 13.3042 80.2788 14.4708 82.0758 14.5042C80.6156 15.6296 78.8228 16.2378 76.9792 16.2333C76.6519 16.2329 76.325 16.2134 76 16.175C77.8755 17.3726 80.0556 18.0061 82.2808 18C89.8375 18 93.9658 11.8458 93.9658 6.50834C93.9658 6.33334 93.9613 6.15834 93.9529 5.98751C94.7542 5.41753 95.4474 4.70922 96 3.89584Z" fill="#323232"/>
<path d="M57.8715 5.31253C57.8715 3.55449 56.5784 2.14025 54.9805 2.14025C52.8162 2.03907 50.6089 2 48.3531 2H47.6499C45.3996 2 43.1884 2.03907 41.0241 2.14064C39.4301 2.14064 38.137 3.5627 38.137 5.32073C38.0393 6.71114 37.9979 8.10194 38.0002 9.49274C37.9963 10.8835 38.0406 12.2756 38.1331 13.6691C38.1331 15.4271 39.4262 16.853 41.0201 16.853C43.2939 16.9585 45.6262 17.0054 47.9976 17.0015C50.3729 17.0093 52.6987 16.9598 54.975 16.853C56.5729 16.853 57.866 15.4271 57.866 13.6691C57.9598 12.2743 58.0028 10.8835 57.9989 9.48884C58.0077 8.09803 57.9653 6.70593 57.8715 5.31253ZM46.0872 13.3253V5.64851L51.752 9.48493L46.0872 13.3253Z" fill="#323232"/>
<path fill-rule="evenodd" clip-rule="evenodd" d="M20 10C20 4.47768 15.5223 0 10 0C4.47768 0 0 4.47768 0 10C0 14.9911 3.65625 19.1281 8.4375 19.879V12.8915H5.89777V10H8.4375V7.79688C8.4375 5.29107 9.9308 3.9058 12.2147 3.9058C13.3089 3.9058 14.4536 4.10134 14.4536 4.10134V6.5625H13.192C11.9504 6.5625 11.5621 7.33304 11.5621 8.125V10H14.3353L13.8924 12.8915H11.5625V19.8799C16.3438 19.1295 20 14.9924 20 10Z" fill="#323232"/>
</svg>
